<svg width="28" height="28" viewBox="0 0 28 28" fill="none" xmlns="http://www.w3.org/2000/svg">
<g clip-path="url(#clip0_885_1209)">
<path d="M19.4976 2.72187C19.3741 2.95505 19.2713 3.19848 19.1903 3.44946C19.1512 3.66169 19.1561 3.87965 19.2045 4.08995C19.2391 4.25615 19.3734 4.40002 19.408 4.56419C19.5749 5.19654 19.8538 5.69923 20.5804 5.82489C20.6903 5.84313 20.8084 6.06002 20.841 6.20392C20.8858 6.4066 20.8288 6.6315 20.8614 6.84026C20.9652 7.50505 20.784 7.96314 20.0472 8.09691C19.9753 8.11496 19.9077 8.14704 19.8483 8.19122C19.7889 8.2354 19.7389 8.2908 19.7011 8.35431C19.4597 8.81668 19.2621 9.30045 19.1109 9.79938C19.0518 10.0183 19.1984 10.3203 19.3144 10.5473C19.4976 10.8756 19.4772 11.1188 19.1719 11.3438C19.0779 11.4134 18.9943 11.496 18.9236 11.589C18.4962 12.1707 18.0056 12.4504 17.3339 11.9437C17.317 11.9341 17.2983 11.9279 17.2789 11.9255C16.994 11.8343 15.39 12.5477 15.2699 12.8213C15.208 12.9418 15.1582 13.0681 15.1213 13.1983C15.0399 13.5631 14.8364 13.7253 14.4578 13.6686C14.3417 13.6513 14.2237 13.6513 14.1076 13.6686C13.3851 13.7861 12.8864 13.6098 12.7154 12.7991C12.6482 12.4667 10.9344 11.7755 10.6555 11.966C10.0143 12.4058 9.55432 12.2174 9.14926 11.6519C9.09918 11.5926 9.04469 11.537 8.98636 11.4857C8.42661 10.902 8.44091 11.1249 8.79305 10.3689C8.94978 10.0325 8.97829 9.76089 8.75439 9.45687C8.67514 9.34617 8.61906 9.22076 8.5895 9.08803C8.44702 8.4577 8.13552 8.01181 7.4516 7.87196C7.32948 7.84561 7.21149 7.61247 7.16875 7.45235C7.1513 7.26033 7.14511 7.06753 7.15036 6.8748C7.04451 6.18772 7.22973 5.70331 7.99914 5.59589C8.01781 5.59219 8.03576 5.58531 8.05211 5.5756C8.39611 5.4013 8.98234 3.78395 8.83171 3.42521C8.51418 2.6753 8.51411 2.67531 9.07184 2.11998L9.23672 1.95372C9.81276 1.38014 9.81891 1.36397 10.5496 1.69433C10.6678 1.75937 10.8019 1.7902 10.9368 1.7834C11.0716 1.77659 11.202 1.73244 11.3129 1.65583C11.4255 1.57782 11.5499 1.51826 11.6814 1.47948C12.3388 1.31936 12.8476 1.01942 12.9861 0.283698C13.0044 0.180332 13.2324 0.0809368 13.3769 0.0464815C13.5215 0.0120262 13.729 0.0586778 13.9 0.0323296C14.6145 -0.0710363 15.164 0.0708939 15.2841 0.899848C15.2841 0.938357 15.2984 0.995063 15.3229 1.00722C15.8562 1.26463 16.3854 1.53828 16.935 1.75717C17.0815 1.81798 17.2992 1.71863 17.4804 1.67404C17.5938 1.64497 17.7022 1.59921 17.802 1.53826C17.8515 1.49938 17.9086 1.47105 17.9696 1.45513C18.0306 1.43922 18.0941 1.43603 18.1564 1.44573C18.2187 1.45544 18.2784 1.47784 18.3316 1.51154C18.3848 1.54525 18.4304 1.5895 18.4656 1.64158C18.7241 1.93141 19.0152 2.19086 19.2798 2.46853C19.3573 2.54865 19.43 2.63325 19.4976 2.72187ZM17.1954 6.93556C17.2074 6.30833 17.0324 5.69166 16.6925 5.16341C16.3527 4.63517 15.8632 4.21906 15.286 3.96763C14.7088 3.71621 14.0697 3.64076 13.4494 3.7508C12.8291 3.86084 12.2555 4.1514 11.801 4.58586C11.3465 5.02032 11.0315 5.57913 10.8958 6.19175C10.7601 6.80436 10.8097 7.44329 11.0384 8.02783C11.2672 8.61237 11.6647 9.11629 12.1809 9.47597C12.6971 9.83565 13.3088 10.0349 13.9387 10.0487C14.3585 10.0597 14.7763 9.98772 15.1679 9.83679C15.5595 9.68586 15.9171 9.45905 16.2201 9.16948C16.523 8.87991 16.7652 8.53331 16.9327 8.14985C17.1001 7.76639 17.1894 7.35366 17.1954 6.93556Z" fill="#005A3E"/>
<path d="M14.0025 28.0003C12.1732 28.0003 10.3413 28.0003 8.50667 28.0003C7.74947 28.0003 7.5235 27.7065 7.70669 26.9869C8.40486 24.2325 11.0937 22.1834 14.0167 22.1895C16.9396 22.1955 19.6224 24.2487 20.3043 27.0011C20.4834 27.7186 20.2575 28.0044 19.4901 28.0044C17.6609 28.0044 15.8317 28.003 14.0025 28.0003Z" fill="#005A3E"/>
<path d="M17.3016 18.3509C17.3004 18.9989 17.1064 19.6321 16.7442 20.1704C16.3819 20.7087 15.8677 21.1281 15.2662 21.3756C14.6648 21.6231 14.0032 21.6876 13.3649 21.561C12.7267 21.4345 12.1405 21.1225 11.6802 20.6644C11.2199 20.2064 10.9062 19.6228 10.7787 18.9874C10.6512 18.352 10.7156 17.6932 10.9638 17.0942C11.212 16.4952 11.6329 15.9828 12.1733 15.6217C12.7137 15.2607 13.3494 15.0671 14.0001 15.0655C14.4345 15.062 14.8652 15.1447 15.2672 15.3085C15.6693 15.4723 16.0345 15.7142 16.3417 16.0199C16.649 16.3257 16.8921 16.6892 17.0569 17.0894C17.2217 17.4897 17.3049 17.9184 17.3016 18.3509Z" fill="#005A3E"/>
<path d="M3.2793 17.7732C3.44214 17.1652 3.57043 16.6179 3.73937 16.0828C3.78228 15.9866 3.78833 15.878 3.75647 15.7776C3.7246 15.6772 3.65699 15.5919 3.56634 15.5376C3.13278 15.2073 2.70945 14.8627 2.29218 14.5242C2.22082 14.4416 2.16246 14.3487 2.11914 14.2486C2.20852 14.1883 2.30766 14.1437 2.41224 14.1169C2.85583 14.055 3.30379 14.0291 3.7516 14.0398C4.28082 14.0783 4.51895 13.8533 4.65126 13.377C4.7787 12.9699 4.93027 12.5706 5.10517 12.1813C5.16089 12.086 5.22937 11.9988 5.30871 11.9219C5.39624 12.0111 5.51221 12.0861 5.56514 12.1955C5.76597 12.6779 5.95256 13.1663 6.12489 13.6609C6.15065 13.7732 6.21697 13.8721 6.31115 13.939C6.40532 14.0058 6.52085 14.036 6.63585 14.0237C7.161 14.0237 7.6861 14.0723 8.21125 14.1128C8.31766 14.1369 8.42035 14.1751 8.51658 14.2264C8.4744 14.3436 8.41327 14.453 8.33549 14.5506C7.96707 14.8667 7.59247 15.1789 7.19759 15.4626C7.06923 15.5306 6.97181 15.6448 6.92527 15.782C6.87873 15.9191 6.88659 16.0688 6.94723 16.2004C7.10804 16.6767 7.22613 17.1692 7.34419 17.6576C7.34989 17.7685 7.33683 17.8795 7.30553 17.986C7.19451 17.9799 7.08515 17.9559 6.98182 17.915C6.57472 17.6718 6.17989 17.4327 5.80943 17.153C5.48172 16.9037 5.21302 16.8774 4.8731 17.1368C4.48106 17.4251 4.07334 17.6917 3.65181 17.9353C3.55451 17.9851 3.44219 17.9974 3.33635 17.9698C3.29361 17.9475 3.28744 17.8016 3.2793 17.7732Z" fill="#005A3E"/>
<path d="M20.6456 17.7178C20.7922 17.1807 20.9143 16.6699 21.0731 16.1734C21.1309 16.0512 21.1404 15.9118 21.0996 15.7829C21.0589 15.6541 20.971 15.5453 20.8532 15.4781C20.4461 15.1802 20.0573 14.854 19.6685 14.5297C19.5951 14.4465 19.5335 14.3537 19.4854 14.254C19.5894 14.1866 19.7034 14.136 19.8233 14.104C20.2304 14.0615 20.6375 14.0412 21.0446 14.0189C21.8425 13.9743 21.6775 14.1486 22.0175 13.3075C22.164 12.9487 22.2841 12.5799 22.4246 12.2211C22.4883 12.1095 22.5663 12.0066 22.6566 11.915C22.7615 12.011 22.8526 12.1208 22.9274 12.2414C23.1309 12.7056 23.308 13.1758 23.4708 13.6602C23.4958 13.7724 23.5616 13.8713 23.6556 13.938C23.7496 14.0046 23.8651 14.0341 23.9797 14.0209C24.5048 14.0209 25.03 14.0675 25.5531 14.1121C25.6746 14.1432 25.7901 14.1938 25.8951 14.2621C25.843 14.3607 25.7779 14.4521 25.7017 14.5337C25.3868 14.8228 25.0514 15.0889 24.6982 15.3302C24.2646 15.6018 24.1568 15.9139 24.34 16.3902C24.479 16.7931 24.5912 17.2048 24.6758 17.6225C24.6865 17.7456 24.6811 17.8696 24.6595 17.9913C24.5318 17.9751 24.4072 17.941 24.2891 17.89C23.8596 17.6265 23.4321 17.355 23.0189 17.0631C22.9237 16.9809 22.802 16.9355 22.676 16.9355C22.55 16.9355 22.4282 16.9809 22.333 17.0631C21.9035 17.3651 21.4578 17.6448 21.01 17.9205C20.9137 17.9711 20.8016 17.9834 20.6965 17.9549C20.6619 17.9346 20.6599 17.7806 20.6456 17.7178Z" fill="#005A3E"/>
<path d="M6.51157 22.6733C6.4032 22.7197 6.29895 22.7754 6.20008 22.8395C5.8337 23.1253 5.48362 23.4374 5.10502 23.7069C4.96857 23.7793 4.86475 23.9004 4.81451 24.046C4.76427 24.1916 4.77132 24.3508 4.83429 24.4913C4.97612 24.9133 5.09368 25.343 5.18642 25.7784C5.20673 25.9399 5.20673 26.1033 5.18642 26.2648C5.04129 26.2298 4.90015 26.1803 4.76511 26.1168C4.39562 25.9027 4.03815 25.6686 3.6944 25.4156C3.36873 25.1642 3.10003 25.1399 2.76214 25.4013C2.36979 25.6886 1.9621 25.9545 1.54085 26.1979C1.43823 26.2335 1.32994 26.2499 1.22132 26.2465C1.19634 26.1417 1.18807 26.0337 1.19687 25.9263C1.32511 25.4196 1.45741 24.9129 1.60397 24.4163C1.65513 24.3027 1.66275 24.1744 1.62523 24.0556C1.58772 23.9368 1.50768 23.8358 1.40042 23.7718C1.00757 23.486 0.633075 23.1759 0.262619 22.8638C0.162283 22.7565 0.0736288 22.639 -0.00195312 22.5131C0.127471 22.4501 0.264197 22.4031 0.405142 22.3733C0.887841 22.3206 1.37283 22.2922 1.8584 22.2882C1.99191 22.3043 2.12657 22.269 2.23478 22.1895C2.343 22.11 2.41667 21.9923 2.44062 21.8606C2.59938 21.3843 2.78867 20.9181 2.98407 20.454C3.02885 20.3506 3.14894 20.2756 3.23443 20.1885C3.31363 20.2647 3.3821 20.3513 3.43798 20.4459C3.61914 20.8938 3.80839 21.3396 3.95291 21.7997C3.97754 21.951 4.0604 22.0869 4.18389 22.1784C4.30738 22.27 4.46178 22.3101 4.61444 22.2902C5.11974 22.2946 5.62454 22.3245 6.12684 22.3794C6.23718 22.407 6.34282 22.4507 6.44031 22.5091L6.51157 22.6733Z" fill="#005A3E"/>
<path d="M26.8923 26.164C26.758 26.1863 26.6013 26.2633 26.5178 26.2147C26.08 25.9632 25.6559 25.6885 25.2476 25.3918C25.1289 25.2781 24.9707 25.2145 24.806 25.2145C24.6413 25.2145 24.483 25.2781 24.3643 25.3918C23.9796 25.6836 23.5501 25.9309 23.143 26.1843C23.0412 26.225 22.933 26.2475 22.8234 26.2511C22.7903 26.1463 22.7766 26.0365 22.7827 25.9269C22.9028 25.4405 23.029 24.9519 23.1898 24.4736C23.2506 24.3422 23.2596 24.1929 23.2151 24.0552C23.1707 23.9174 23.0759 23.8013 22.9496 23.7298C22.5425 23.4359 22.1537 23.1096 21.769 22.7833C21.7006 22.6993 21.6475 22.6039 21.6123 22.5015C21.7031 22.4456 21.8019 22.4039 21.9054 22.3779C22.4285 22.3354 22.9536 22.2888 23.4767 22.2847C23.601 22.2979 23.7259 22.2654 23.8279 22.1934C23.9298 22.1213 24.0019 22.0147 24.0304 21.8935C24.1912 21.4172 24.3724 20.949 24.5637 20.4748C24.6272 20.3638 24.7067 20.2627 24.7998 20.1748C24.8937 20.2581 24.9754 20.3544 25.0421 20.4606C25.2355 20.9227 25.4288 21.3889 25.5835 21.8672C25.6124 21.9968 25.6896 22.1107 25.7995 22.186C25.9095 22.2612 26.0439 22.2921 26.1758 22.2725C26.6989 22.2725 27.224 22.3233 27.7472 22.3638C27.8367 22.3835 27.9231 22.4155 28.0037 22.459C27.963 22.5563 27.9487 22.684 27.8755 22.7448C27.5154 23.0698 27.1361 23.373 26.7397 23.6528C26.3631 23.9041 26.3183 24.1838 26.4588 24.5851C26.6216 25.0756 26.7274 25.5681 26.8923 26.164Z" fill="#005A3E"/>
</g>
<defs>
<clipPath id="clip0_885_1209">
<rect width="28" height="28" fill="white"/>
</clipPath>
</defs>
</svg>
