<svg width="460" height="79" viewBox="0 0 460 79" fill="none" xmlns="http://www.w3.org/2000/svg">
<g filter="url(#filter0_d_39_82)">
<path d="M343.385 64.7347C344.187 64.7347 345.236 64.7347 345.73 65.3496C346.332 66.0828 347.155 66.6039 348.077 66.8363C348.999 67.0688 349.972 67.0003 350.851 66.641C351.777 66.272 353.443 67.6863 353.69 65.5341C353.797 65.4884 353.913 65.4649 354.029 65.4649C354.146 65.4649 354.261 65.4884 354.369 65.5341C356.405 67.6863 358.688 66.149 360.91 65.9645C362.335 65.7324 363.738 65.3827 365.106 64.9192C365.414 64.9192 365.908 64.9192 366.093 64.9192C366.71 65.3423 367.442 65.5687 368.191 65.5687C368.94 65.5687 369.672 65.3423 370.289 64.9192C370.289 64.9192 371.153 64.9192 371.523 64.9192C371.838 65.2209 372.242 65.4137 372.675 65.4691C373.109 65.5245 373.548 65.4395 373.93 65.2267C373.93 65.2267 374.979 65.2267 375.472 65.6571C375.966 66.0875 376.83 65.6571 376.583 64.7347L384.111 65.6571C384.454 65.5628 384.817 65.5628 385.16 65.6571C389.418 67.5633 394.046 65.6571 398.365 66.8869C402.154 66.4561 405.972 66.3327 409.781 66.518C411.941 66.518 414.162 66.518 416.322 66.518C417.911 66.1102 419.476 65.6176 421.012 65.0422C423.048 64.4888 425.084 64.0583 427.182 63.5664C427.831 63.4293 428.416 63.0836 428.848 62.5825C428.987 62.2837 429.058 61.9585 429.058 61.6294C429.058 61.3003 428.987 60.9751 428.848 60.6763C428.293 59.5695 427.306 59.8154 426.38 60.2459C425.454 60.6763 425.64 60.2459 425.269 60.2459C424.899 60.2459 425.578 59.5695 425.825 59.4465C426.436 59.1686 427.078 58.9622 427.738 58.8316C428.32 58.7172 428.897 58.5735 429.465 58.4011C429.821 58.074 430.132 57.7019 430.391 57.2943C430.002 57.2396 429.607 57.2396 429.219 57.2943C429.005 57.3622 428.779 57.3789 428.558 57.3429C428.337 57.307 428.128 57.2195 427.947 57.0876C427.767 56.9557 427.62 56.7831 427.519 56.5839C427.419 56.3847 427.366 56.1646 427.367 55.9415C427.321 55.0536 427.491 54.1677 427.861 53.3589C428.293 53.3589 428.848 53.3589 429.157 53.7893C429.465 54.2197 430.268 54.3427 430.514 53.7893C430.699 53.2455 431.077 52.7883 431.578 52.5048C432.079 52.2213 432.666 52.1313 433.229 52.252C439.173 51.9707 445.049 50.874 450.692 48.993C451.653 48.5165 452.459 47.7784 453.016 46.8642C453.573 45.9499 453.858 44.8971 453.839 43.8277C453.74 41.9229 454.283 40.0398 455.382 38.478C455.806 37.4441 456.015 36.3356 455.999 35.219C455.999 34.6655 455.999 34.0506 455.999 33.4357C455.999 30.4841 455.691 30.6686 453.099 29.6233C449.073 28.5549 444.924 28.0174 440.758 28.0245C435.945 27.4096 431.131 27.2866 426.257 26.6717C422.554 26.1798 418.79 26.1183 415.088 25.8108C409.658 25.3189 404.166 24.581 398.736 24.1506C396.819 24.233 394.902 24.0045 393.059 23.4742C392.256 23.1052 391.146 23.4742 390.22 23.4742C389.038 23.329 387.864 23.1238 386.703 22.8593H386.271H386.579L389.541 22.6133C391.146 22.6133 392.75 21.9984 394.354 21.8139C395.868 21.4492 397.43 21.3247 398.982 21.445C400.093 21.445 400.772 22.0599 401.142 20.7071C401.142 20.7071 401.821 20.7071 401.944 20.7071C403.487 22.2443 404.659 21.6294 405.832 20.2151C407.004 18.8008 407.498 18.9238 408.485 20.2151C408.485 20.2151 409.102 20.2151 409.411 20.2151V19.1083C409.444 18.946 409.444 18.7787 409.411 18.6164L407.498 16.7716C408.362 16.7716 409.226 16.1567 410.151 15.9722C411.077 15.7878 412.064 15.4803 411.262 14.066C411.262 14.066 411.262 13.2666 411.632 12.9592C412.002 12.6517 411.632 12.0983 411.2 11.9753C408.424 11.4219 405.708 10.7455 402.932 10.438C401.482 10.2791 400.078 9.8405 398.797 9.14673H398.304C397.316 5.21129 394.848 7.79392 392.935 7.9169L395.712 8.59331C394.046 8.59331 392.318 9.14672 391.022 7.54795H390.652C390.652 7.54795 388.863 7.54795 388.369 7.24049C386.703 5.76471 384.852 6.19514 382.939 6.01067C381.026 5.82619 377.447 5.39577 374.732 4.96533C373.621 4.96533 373.066 4.96533 372.819 6.07217L373.498 6.4411V6.81006C373.498 6.81006 373.004 6.81006 372.881 6.81006C372.757 6.81006 372.881 6.37963 372.881 6.19516C371.708 5.51875 370.659 4.28893 369.302 6.19516C368.993 6.5641 367.327 6.19514 366.71 5.88768C366.187 5.41237 365.505 5.14888 364.797 5.14888C364.089 5.14888 363.407 5.41237 362.884 5.88768C361.465 7.05601 360.601 6.93303 359.429 5.45724C358.604 4.73406 357.563 4.30183 356.467 4.22742C354.369 4.22742 352.147 4.22742 349.988 3.79698H345.298L336.721 3.36654L333.389 3.05909H324.626C322.096 3.05909 319.566 3.05909 317.098 3.05909C314.63 3.05909 313.704 3.0591 312.038 2.75164H305.868C301.486 2.75164 297.044 2.25971 292.662 2.75164C291.06 2.87654 289.451 2.87654 287.849 2.75164C287.172 2.69053 286.49 2.69053 285.813 2.75164H281.987H276.804H264.771H258.6H248.481C247.493 2.75164 246.568 2.75164 245.58 2.75164H233.239H232.684C227.958 2.14687 223.184 2.00271 218.43 2.32121C213.123 1.95226 207.878 2.69014 202.571 1.95225C199.643 1.85164 196.712 1.99562 193.809 2.38269C191.279 2.38269 188.749 1.82928 186.219 1.89077C180.974 1.89077 175.667 1.89077 170.36 1.89077C163.079 1.89077 155.798 1.89076 148.516 1.52181C146.418 1.52181 144.382 1.52181 142.346 1.52181C142.186 1.57808 142.012 1.57808 141.852 1.52181C139.281 1.06114 136.648 1.06114 134.077 1.52181C130.622 1.05422 127.133 0.889625 123.649 1.0299C119.761 1.58332 115.874 1.0299 111.986 1.0299C110.508 1.15252 109.022 1.15252 107.543 1.0299C105.815 1.0299 104.026 0.537955 102.915 2.50567C102.915 2.50567 102.298 2.50567 101.99 2.50567C101.681 2.50567 101.99 1.82927 101.99 1.52181C101.99 0.2305 100.817 0.0460397 99.7066 0.0460397H91.5613C91.1316 -0.0153466 90.6952 -0.0153466 90.2655 0.0460397L79.5903 0.660942C78.7881 0.660942 77.7391 0.291994 77.4923 1.6448H76.8752C76.5667 0.291994 75.8262 0.414975 75.024 1.09138C74.2218 1.76778 72.926 2.3212 71.7536 1.09138C70.5812 -0.138445 70.828 1.09138 70.4578 1.6448C70.0875 2.19822 69.4705 2.44418 68.9151 1.6448C68.7663 1.374 68.5637 1.13621 68.3197 0.945921C68.0757 0.755635 67.7954 0.616832 67.4959 0.537957C66.5559 0.565659 65.6231 0.710256 64.7191 0.968393L66.2 2.07524H67.1873V2.50567H66.2617C63.9169 2.50567 61.6337 3.36655 59.2889 3.48953C57.3997 3.49939 55.5156 3.29307 53.6736 2.87463C51.2054 2.44419 48.7371 1.7063 46.7008 3.98147C46.4944 4.1002 46.2604 4.1627 46.0221 4.1627C45.7838 4.1627 45.5497 4.1002 45.3433 3.98147C44.6028 3.55103 44.0474 3.36656 43.4921 3.98147C42.9367 4.59638 43.4921 5.33427 44.0474 5.94919C44.6028 6.5641 44.4794 7.11752 44.6028 7.73243C44.6028 9.3927 45.5284 9.9461 47.1327 9.63865H47.7498C47.7498 9.63865 47.7498 10.315 47.7498 10.3765C46.5157 10.8685 45.2199 11.3604 43.8624 11.7909C42.5048 12.2213 42.3197 12.3443 43.1219 13.3896C43.924 14.435 43.1219 14.312 42.5048 14.3735C41.929 14.5748 41.3027 14.5814 40.7227 14.3925C40.1427 14.2035 39.6413 13.8295 39.2961 13.3281C38.949 12.7512 38.4283 12.298 37.8079 12.0331C37.1875 11.7681 36.4991 11.7049 35.8405 11.8523C33.5425 12.3443 31.1658 12.3443 28.8677 11.8523C28.5592 11.8523 27.757 11.8523 27.8187 12.2213C27.8187 13.8815 27.325 13.3896 26.2143 13.0207C25.1036 12.6517 23.3141 13.5741 23.8078 15.2343C24.3014 16.8946 23.3141 16.7101 22.5119 17.0176C21.7097 17.325 19.1181 18.2474 17.5137 19.1083C16.7392 19.5849 16.168 20.3292 15.9093 21.199C15.354 22.7978 15.9094 23.7201 17.7605 23.6586C18.552 23.5749 19.3359 23.431 20.1054 23.2282C20.4541 23.1928 20.8056 23.1928 21.1544 23.2282C20.9089 23.5758 20.5937 23.869 20.2288 24.0891C20.2288 24.0891 19.55 24.0891 19.2415 24.0891C18.933 24.0891 17.884 24.6425 18.2542 25.5034C18.6244 26.3643 19.6117 28.2705 20.3522 29.6233C21.7097 32.2059 23.2524 34.6656 24.5482 37.2482C24.8095 38.2565 24.8095 39.3144 24.5482 40.3227C24.5482 41.4296 24.5482 42.0445 25.8441 42.229C27.8735 42.7093 29.9361 43.0382 32.0147 43.2128C36.0873 43.2128 40.1599 43.5818 44.356 43.7048C46.7178 43.8894 49.0904 43.8894 51.4522 43.7048C52.4451 43.5841 53.4525 43.7057 54.3877 44.0592C55.3229 44.4127 56.1579 44.9875 56.8207 45.734H55.8334C54.1615 45.207 52.3505 45.339 50.7734 46.1029C49.8272 46.4556 48.8214 46.6227 47.8115 46.5948C45.7135 46.5948 43.5538 46.5948 41.6409 47.0868C39.728 47.5787 41.6409 48.8085 41.6409 49.6694C40.6536 49.6694 39.728 49.6694 39.7897 51.2067C39.7575 51.6286 39.608 52.0332 39.3578 52.375L37.8768 54.0968C37.4449 53.5433 37.198 52.7439 36.6427 52.5595C35.5823 52.1261 34.4553 51.8766 33.3105 51.8216C31.9367 51.6678 30.55 51.6678 29.1762 51.8216C27.8804 51.8216 26.3377 51.8216 25.7207 53.4203C25.7207 53.4203 25.2887 53.4203 25.0419 53.4203C24.7951 53.4203 25.0419 53.1129 25.0419 53.0514C25.8441 51.7601 25.0419 51.6371 24.0546 51.6371C21.2161 51.6371 18.3776 51.6371 15.5391 51.6371C14.8603 51.6371 14.1816 52.8669 13.6262 52.8054C13.0709 52.744 12.3304 51.4526 11.6516 51.3911C10.2876 51.3712 8.92446 51.4741 7.57899 51.6986C7.46507 51.7619 7.36704 51.8502 7.29223 51.9567C7.21742 52.0632 7.16778 52.1852 7.14704 52.3135C7.14704 52.3135 7.14705 52.744 7.64071 52.8054L9.80042 53.4203C8.87482 54.5272 7.08534 53.4204 6.96193 55.0191C6.80922 55.993 6.60324 56.9578 6.34488 57.9092L6.83854 58.4011L6.28316 57.9092C5.9571 57.8462 5.62194 57.8462 5.29588 57.9092C4.78699 58.178 4.34434 58.556 4.00001 59.016C4.00001 59.016 4.4937 59.8154 4.86394 60.1844C5.1704 60.5003 5.55265 60.7332 5.97461 60.8608C6.9002 60.8608 6.90021 61.5987 6.65338 62.4596C6.40656 63.3204 5.72782 65.7801 8.13437 66.4565C8.13437 66.4565 8.13437 66.8869 8.13437 67.1329C8.13437 67.3789 7.70242 68.0552 8.13437 68.3627C8.3126 68.4652 8.51478 68.5192 8.72059 68.5192C8.92639 68.5192 9.12853 68.4652 9.30676 68.3627C10.4792 67.5633 11.3431 67.9938 12.207 68.8546C13.0709 69.7155 13.0708 68.8546 13.5028 68.8546C14.6287 68.6989 15.7708 68.6989 16.8967 68.8546C21.251 69.8054 25.7301 70.0545 30.1635 69.5925C33.002 69.5925 35.9022 69.5925 38.7407 69.5925H46.3306H47.8732C48.4522 69.8005 49.0523 69.9448 49.6627 70.023H59.8443H67.9278H70.5812L82.9224 69.5925C84.0332 69.5925 85.2056 69.9 86.3163 69.9615C94.2764 69.9615 102.237 69.9615 110.197 69.9615C114.701 69.9615 119.267 70.4534 123.772 70.5764C125.623 70.5764 127.474 70.5764 129.264 70.2075C131.053 69.8385 132.288 70.2074 133.768 70.5149H135.311C142.037 70.5149 148.763 70.5149 155.489 70.5149C157.834 70.5149 160.179 70.8838 162.585 70.8224C167.954 70.8224 173.322 70.5149 178.691 70.4534C181.221 70.4534 183.751 70.8224 186.281 70.9453C188.811 71.0683 191.772 70.9453 194.549 70.9453C199.547 70.9453 204.484 70.9453 209.42 70.9453C212.999 70.9453 216.578 70.9453 220.157 70.4534C221.021 70.4534 221.885 70.4534 222.749 70.4534C226.451 70.4534 230.092 70.4534 233.794 70.4534L260.452 70.0845L289.33 69.5925C292.909 69.5925 296.488 69.5925 300.067 69.5925H301.116C303.584 69.5925 305.744 67.8093 308.583 68.9161C311.049 69.3819 313.582 69.3819 316.049 68.9161L320.492 68.5472C322.914 67.984 325.366 67.5529 327.835 67.2559H331.846C332.769 67.3444 333.699 67.3444 334.623 67.2559C335.916 67.2965 337.19 66.9308 338.263 66.2105C339.436 65.1037 340.053 65.2882 341.04 66.2105C341.541 66.6079 342.078 66.9578 342.645 67.2559C342.645 66.5795 343.015 65.9646 343.138 65.3496C343.172 65.002 343.172 64.6519 343.138 64.3043L343.385 64.7347ZM43.1836 47.2097H43.9857L43.307 46.8408H42.9368L43.1836 47.2097ZM44.2326 48.8085L45.7752 49.239V49.6079L44.4177 48.8085H43.8624L41.826 49.6079V48.993H44.0474L44.2326 48.8085ZM22.5736 17.3865V16.4642H24.178V16.8946L22.5736 17.3865ZM297.784 4.04295C297.784 4.04295 298.154 3.674 298.216 4.04295L299.018 4.59637C299.018 4.59637 299.018 4.59637 298.648 4.59637L297.784 4.04295ZM30.472 12.3443C30.8423 12.3443 31.0274 11.8523 31.2125 11.7909H31.6445C31.4902 11.9864 31.3022 12.153 31.0891 12.2828L30.472 12.3443ZM386.148 7.42496V7.79392H385.839L386.148 7.42496ZM21.5864 50.3458C21.5864 50.3458 21.7715 50.4073 21.7097 50.3458H21.5864Z" fill="#FFF272"/>
</g>
<defs>
<filter id="filter0_d_39_82" x="0" y="0" width="460" height="79" filterUnits="userSpaceOnUse" color-interpolation-filters="sRGB">
<feFlood flood-opacity="0" result="BackgroundImageFix"/>
<feColorMatrix in="SourceAlpha" type="matrix" values="0 0 0 0 0 0 0 0 0 0 0 0 0 0 0 0 0 0 127 0" result="hardAlpha"/>
<feOffset dy="4"/>
<feGaussianBlur stdDeviation="2"/>
<feComposite in2="hardAlpha" operator="out"/>
<feColorMatrix type="matrix" values="0 0 0 0 0 0 0 0 0 0 0 0 0 0 0 0 0 0 0.25 0"/>
<feBlend mode="normal" in2="BackgroundImageFix" result="effect1_dropShadow_39_82"/>
<feBlend mode="normal" in="SourceGraphic" in2="effect1_dropShadow_39_82" result="shape"/>
</filter>
</defs>
</svg>
