<svg width="460" height="83" viewBox="0 0 460 83" fill="none" xmlns="http://www.w3.org/2000/svg">
<g filter="url(#filter0_d_39_78)">
<path d="M115.618 66.7347C114.823 66.7347 113.784 66.7347 113.294 67.3496C112.697 68.0828 111.882 68.6039 110.968 68.8363C110.054 69.0688 109.09 69.0003 108.218 68.641C107.301 68.272 105.649 69.6863 105.405 67.5341C105.298 67.4884 105.184 67.4649 105.068 67.4649C104.953 67.4649 104.838 67.4884 104.732 67.5341C102.714 69.6863 100.451 68.149 98.2489 67.9645C96.8362 67.7324 95.4451 67.3827 94.09 66.9192C93.7842 66.9192 93.2949 66.9192 93.1114 66.9192C92.4996 67.3423 91.7745 67.5687 91.032 67.5687C90.2894 67.5687 89.5643 67.3423 88.9525 66.9192C88.9525 66.9192 88.0963 66.9192 87.7293 66.9192C87.4171 67.2209 87.0167 67.4137 86.5872 67.4691C86.1577 67.5245 85.7218 67.4395 85.3441 67.2267C85.3441 67.2267 84.3043 67.2267 83.8151 67.6571C83.3258 68.0875 82.4695 67.6571 82.7142 66.7347L75.2526 67.6571C74.9124 67.5628 74.5531 67.5628 74.2129 67.6571C69.9928 69.5633 65.4058 67.6571 61.1246 68.8869C57.3692 68.4561 53.5852 68.3327 49.8099 68.518C47.6693 68.518 45.4676 68.518 43.3269 68.518C41.7523 68.1102 40.2007 67.6176 38.6788 67.0422C36.6605 66.4888 34.6422 66.0583 32.5627 65.5664C31.9199 65.4293 31.3397 65.0836 30.9114 64.5825C30.7743 64.2837 30.7033 63.9585 30.7033 63.6294C30.7033 63.3003 30.7743 62.9751 30.9114 62.6763C31.4619 61.5695 32.4404 61.8154 33.3578 62.2459C34.2752 62.6763 34.0917 62.2459 34.4587 62.2459C34.8257 62.2459 34.1529 61.5695 33.9083 61.4465C33.302 61.1686 32.6658 60.9622 32.0123 60.8316C31.4346 60.7172 30.8631 60.5735 30.2998 60.4011C29.9473 60.074 29.6389 59.7019 29.3824 59.2943C29.7678 59.2396 30.159 59.2396 30.5444 59.2943C30.7558 59.3622 30.9801 59.3789 31.1991 59.3429C31.4181 59.307 31.6255 59.2195 31.8044 59.0876C31.9834 58.9557 32.1287 58.7831 32.2286 58.5839C32.3285 58.3847 32.3801 58.1646 32.3793 57.9415C32.4249 57.0536 32.257 56.1677 31.89 55.3589C31.4619 55.3589 30.9114 55.3589 30.6056 55.7893C30.2998 56.2197 29.5047 56.3427 29.2601 55.7893C29.0776 55.2455 28.7024 54.7883 28.2061 54.5048C27.7098 54.2213 27.1271 54.1313 26.569 54.252C20.678 53.9707 14.8537 52.874 9.26067 50.993C8.30829 50.5165 7.50976 49.7784 6.95768 48.8642C6.4056 47.9499 6.1226 46.8971 6.14149 45.8277C6.2398 43.9229 5.70158 42.0398 4.61249 40.478C4.19266 39.4441 3.98464 38.3356 4.00088 37.219C4.00088 36.6655 4.00088 36.0506 4.00088 35.4357C4.00088 32.4841 4.30668 32.6686 6.87542 31.6233C10.8657 30.5549 14.9781 30.0174 19.1075 30.0245C23.878 29.4096 28.6485 29.2866 33.4801 28.6717C37.1498 28.1798 40.8805 28.1183 44.5502 27.8108C49.9323 27.3189 55.3755 26.581 60.7576 26.1506C62.6573 26.233 64.5576 26.0045 66.3844 25.4742C67.1795 25.1052 68.2803 25.4742 69.1977 25.4742C70.3694 25.329 71.533 25.1238 72.6839 24.8593H73.112H72.8062L69.8705 24.6133C68.2803 24.6133 66.6902 23.9984 65.1 23.8139C63.5998 23.4492 62.0518 23.3247 60.513 23.445C59.4121 23.445 58.7393 24.0599 58.3724 22.7071C58.3724 22.7071 57.6996 22.7071 57.5773 22.7071C56.0483 24.2443 54.8862 23.6294 53.7242 22.2151C52.5622 20.8008 52.0729 20.9238 51.0943 22.2151C51.0943 22.2151 50.4827 22.2151 50.1769 22.2151V21.1083C50.144 20.946 50.144 20.7787 50.1769 20.6164L52.0729 18.7716C51.2166 18.7716 50.3604 18.1567 49.443 17.9722C48.5256 17.7878 47.547 17.4803 48.3421 16.066C48.3421 16.066 48.3421 15.2666 47.9751 14.9592C47.6082 14.6517 47.9751 14.0983 48.4033 13.9753C51.1555 13.4219 53.8465 12.7455 56.5987 12.438C58.0351 12.2791 59.4269 11.8405 60.6965 11.1467H61.1858C62.1643 7.21129 64.6107 9.79392 66.5067 9.9169L63.7545 10.5933C65.4058 10.5933 67.1183 11.1467 68.4027 9.54795H68.7696C68.7696 9.54795 70.5433 9.54795 71.0326 9.24049C72.6839 7.76471 74.5187 8.19514 76.4147 8.01067C78.3106 7.82619 81.8579 7.39577 84.549 6.96533C85.6499 6.96533 86.2003 6.96533 86.445 8.07217L85.7722 8.4411V8.81006C85.7722 8.81006 86.2615 8.81006 86.3838 8.81006C86.5061 8.81006 86.3838 8.37963 86.3838 8.19516C87.5458 7.51875 88.5856 6.28893 89.9311 8.19516C90.2369 8.5641 91.8882 8.19514 92.4998 7.88768C93.0181 7.41237 93.6943 7.14888 94.3958 7.14888C95.0973 7.14888 95.7735 7.41237 96.2918 7.88768C97.6984 9.05601 98.5547 8.93303 99.7167 7.45724C100.534 6.73406 101.566 6.30183 102.652 6.22742C104.732 6.22742 106.934 6.22742 109.074 5.79698H113.722L122.224 5.36654L125.526 5.05909H134.211C136.719 5.05909 139.226 5.05909 141.673 5.05909C144.119 5.05909 145.036 5.0591 146.688 4.75164H152.804C157.146 4.75164 161.55 4.25971 165.892 4.75164C167.48 4.87654 169.075 4.87654 170.663 4.75164C171.334 4.69053 172.01 4.69053 172.681 4.75164H176.473H181.61H193.537H199.653H209.683C210.662 4.75164 211.579 4.75164 212.557 4.75164H224.79H225.34C230.024 4.14687 234.756 4.00271 239.468 4.32121C244.728 3.95226 249.926 4.69014 255.186 3.95225C258.088 3.85164 260.993 3.99562 263.871 4.38269C266.379 4.38269 268.886 3.82928 271.394 3.89077C276.592 3.89077 281.852 3.89077 287.112 3.89077C294.329 3.89077 301.546 3.89076 308.763 3.52181C310.842 3.52181 312.86 3.52181 314.879 3.52181C315.037 3.57808 315.21 3.57808 315.368 3.52181C317.916 3.06114 320.526 3.06114 323.074 3.52181C326.499 3.05422 329.957 2.88962 333.41 3.0299C337.263 3.58332 341.116 3.0299 344.969 3.0299C346.435 3.15252 347.908 3.15252 349.373 3.0299C351.086 3.0299 352.859 2.53795 353.96 4.50567C353.96 4.50567 354.572 4.50567 354.877 4.50567C355.183 4.50567 354.877 3.82927 354.877 3.52181C354.877 2.2305 356.04 2.04604 357.14 2.04604H365.214C365.64 1.98465 366.072 1.98465 366.498 2.04604L377.079 2.66094C377.874 2.66094 378.913 2.29199 379.158 3.6448H379.77C380.075 2.29199 380.809 2.41498 381.605 3.09138C382.4 3.76778 383.684 4.3212 384.846 3.09138C386.008 1.86155 385.763 3.09138 386.13 3.6448C386.497 4.19822 387.109 4.44418 387.659 3.6448C387.807 3.374 388.008 3.13621 388.249 2.94592C388.491 2.75563 388.769 2.61683 389.066 2.53796C389.998 2.56566 390.922 2.71026 391.818 2.96839L390.35 4.07524H389.372V4.50567H390.289C392.613 4.50567 394.876 5.36655 397.2 5.48953C399.073 5.49939 400.94 5.29307 402.766 4.87463C405.212 4.44419 407.659 3.7063 409.677 5.98147C409.882 6.1002 410.114 6.1627 410.35 6.1627C410.586 6.1627 410.818 6.1002 411.023 5.98147C411.756 5.55103 412.307 5.36656 412.857 5.98147C413.408 6.59638 412.857 7.33427 412.307 7.94919C411.757 8.5641 411.879 9.11752 411.757 9.73243C411.757 11.3927 410.839 11.9461 409.249 11.6386H408.637C408.637 11.6386 408.637 12.315 408.637 12.3765C409.861 12.8685 411.145 13.3604 412.49 13.7909C413.836 14.2213 414.019 14.3443 413.224 15.3896C412.429 16.435 413.224 16.312 413.836 16.3735C414.407 16.5748 415.027 16.5814 415.602 16.3925C416.177 16.2035 416.674 15.8295 417.016 15.3281C417.36 14.7512 417.876 14.298 418.491 14.0331C419.106 13.7681 419.789 13.7049 420.441 13.8523C422.719 14.3443 425.075 14.3443 427.352 13.8523C427.658 13.8523 428.453 13.8523 428.392 14.2213C428.392 15.8815 428.881 15.3896 429.982 15.0207C431.083 14.6517 432.857 15.5741 432.368 17.2343C431.878 18.8946 432.857 18.7101 433.652 19.0176C434.447 19.325 437.016 20.2474 438.606 21.1083C439.374 21.5849 439.94 22.3292 440.196 23.199C440.747 24.7978 440.196 25.7201 438.361 25.6586C437.577 25.5749 436.8 25.431 436.037 25.2282C435.691 25.1928 435.343 25.1928 434.997 25.2282C435.241 25.5758 435.553 25.869 435.915 26.0891C435.915 26.0891 436.588 26.0891 436.893 26.0891C437.199 26.0891 438.239 26.6425 437.872 27.5034C437.505 28.3643 436.526 30.2705 435.793 31.6233C434.447 34.2059 432.918 36.6656 431.634 39.2482C431.375 40.2565 431.375 41.3144 431.634 42.3227C431.634 43.4296 431.634 44.0445 430.349 44.229C428.338 44.7093 426.293 45.0382 424.233 45.2128C420.197 45.2128 416.16 45.5818 412.001 45.7048C409.66 45.8894 407.309 45.8894 404.968 45.7048C403.984 45.5841 402.985 45.7057 402.058 46.0592C401.131 46.4127 400.304 46.9875 399.647 47.734H400.625C402.282 47.207 404.077 47.339 405.64 48.1029C406.578 48.4556 407.575 48.6227 408.576 48.5948C410.656 48.5948 412.796 48.5948 414.692 49.0868C416.588 49.5787 414.692 50.8085 414.692 51.6694C415.671 51.6694 416.588 51.6694 416.527 53.2067C416.559 53.6286 416.707 54.0332 416.955 54.375L418.423 56.0968C418.851 55.5433 419.096 54.7439 419.646 54.5595C420.697 54.1261 421.814 53.8766 422.949 53.8216C424.31 53.6678 425.685 53.6678 427.047 53.8216C428.331 53.8216 429.86 53.8216 430.472 55.4203C430.472 55.4203 430.9 55.4203 431.144 55.4203C431.389 55.4203 431.144 55.1129 431.144 55.0514C430.349 53.7601 431.144 53.6371 432.123 53.6371C434.936 53.6371 437.75 53.6371 440.563 53.6371C441.236 53.6371 441.909 54.8669 442.459 54.8054C443.009 54.744 443.743 53.4526 444.416 53.3911C445.768 53.3712 447.119 53.4741 448.453 53.6986C448.566 53.7619 448.663 53.8502 448.737 53.9567C448.811 54.0632 448.86 54.1852 448.881 54.3135C448.881 54.3135 448.881 54.744 448.392 54.8054L446.251 55.4203C447.168 56.5272 448.942 55.4204 449.064 57.0191C449.216 57.993 449.42 58.9578 449.676 59.9092L449.187 60.4011L449.737 59.9092C450.06 59.8462 450.392 59.8462 450.716 59.9092C451.22 60.178 451.659 60.556 452 61.016C452 61.016 451.511 61.8154 451.144 62.1844C450.84 62.5003 450.461 62.7332 450.043 62.8608C449.125 62.8608 449.125 63.5987 449.37 64.4596C449.615 65.3204 450.287 67.7801 447.902 68.4565C447.902 68.4565 447.902 68.8869 447.902 69.1329C447.902 69.3789 448.33 70.0552 447.902 70.3627C447.726 70.4652 447.525 70.5192 447.321 70.5192C447.117 70.5192 446.917 70.4652 446.74 70.3627C445.578 69.5633 444.722 69.9938 443.866 70.8546C443.009 71.7155 443.009 70.8546 442.581 70.8546C441.465 70.6989 440.333 70.6989 439.217 70.8546C434.902 71.8054 430.462 72.0545 426.068 71.5925C423.255 71.5925 420.38 71.5925 417.567 71.5925H410.044H408.515C407.941 71.8005 407.346 71.9448 406.741 72.023H396.65H388.638H386.008L373.776 71.5925C372.675 71.5925 371.513 71.9 370.412 71.9615C362.522 71.9615 354.633 71.9615 346.743 71.9615C342.278 71.9615 337.753 72.4534 333.288 72.5764C331.453 72.5764 329.618 72.5764 327.845 72.2075C326.071 71.8385 324.848 72.2074 323.38 72.5149H321.851C315.184 72.5149 308.518 72.5149 301.851 72.5149C299.527 72.5149 297.203 72.8838 294.818 72.8224C289.497 72.8224 284.176 72.5149 278.855 72.4534C276.348 72.4534 273.84 72.8224 271.332 72.9453C268.825 73.0683 265.889 72.9453 263.137 72.9453C258.183 72.9453 253.29 72.9453 248.397 72.9453C244.85 72.9453 241.303 72.9453 237.756 72.4534C236.899 72.4534 236.043 72.4534 235.187 72.4534C231.517 72.4534 227.909 72.4534 224.239 72.4534L197.818 72.0845L169.195 71.5925C165.648 71.5925 162.1 71.5925 158.553 71.5925H157.513C155.067 71.5925 152.926 69.8093 150.113 70.9161C147.668 71.3819 145.157 71.3819 142.712 70.9161L138.309 70.5472C135.908 69.984 133.478 69.5529 131.031 69.2559H127.055C126.14 69.3444 125.218 69.3444 124.303 69.2559C123.021 69.2965 121.759 68.9308 120.695 68.2105C119.533 67.1037 118.921 67.2882 117.942 68.2105C117.446 68.6079 116.914 68.9578 116.352 69.2559C116.352 68.5795 115.985 67.9646 115.863 67.3496C115.829 67.002 115.829 66.6519 115.863 66.3043L115.618 66.7347ZM413.163 49.2097H412.368L413.041 48.8408H413.408L413.163 49.2097ZM412.123 50.8085L410.594 51.239V51.6079L411.94 50.8085H412.49L414.509 51.6079V50.993H412.307L412.123 50.8085ZM433.591 19.3865V18.4642H432.001V18.8946L433.591 19.3865ZM160.816 6.04295C160.816 6.04295 160.449 5.674 160.388 6.04295L159.593 6.59637C159.593 6.59637 159.593 6.59637 159.96 6.59637L160.816 6.04295ZM425.762 14.3443C425.395 14.3443 425.212 13.8523 425.028 13.7909H424.6C424.753 13.9864 424.939 14.153 425.151 14.2828L425.762 14.3443ZM73.2343 9.42496V9.79392H73.5401L73.2343 9.42496ZM434.569 52.3458C434.569 52.3458 434.386 52.4073 434.447 52.3458H434.569Z" fill="#FFF272"/>
</g>
<defs>
<filter id="filter0_d_39_78" x="0" y="0" width="460" height="83" filterUnits="userSpaceOnUse" color-interpolation-filters="sRGB">
<feFlood flood-opacity="0" result="BackgroundImageFix"/>
<feColorMatrix in="SourceAlpha" type="matrix" values="0 0 0 0 0 0 0 0 0 0 0 0 0 0 0 0 0 0 127 0" result="hardAlpha"/>
<feOffset dx="2" dy="4"/>
<feGaussianBlur stdDeviation="3"/>
<feComposite in2="hardAlpha" operator="out"/>
<feColorMatrix type="matrix" values="0 0 0 0 0 0 0 0 0 0 0 0 0 0 0 0 0 0 0.1 0"/>
<feBlend mode="normal" in2="BackgroundImageFix" result="effect1_dropShadow_39_78"/>
<feBlend mode="normal" in="SourceGraphic" in2="effect1_dropShadow_39_78" result="shape"/>
</filter>
</defs>
</svg>
