<svg width="27" height="28" viewBox="0 0 27 28" fill="none" xmlns="http://www.w3.org/2000/svg">
<g clip-path="url(#clip0_885_1199)">
<path d="M13.8737 22.6291C13.6846 22.6419 13.5229 22.6633 13.3611 22.6633C10.1043 22.6633 6.84746 22.6633 3.59065 22.6633C2.79303 22.6817 2.01458 22.4127 1.39263 21.904C0.770687 21.3953 0.345138 20.6795 0.190924 19.8826C0.148958 19.6786 0.127875 19.4706 0.12793 19.2622C0.12793 16.7053 0.12793 14.1485 0.12793 11.5916C0.12793 11.4462 0.148876 11.2986 0.165685 11.0997C0.709887 11.3136 1.21634 11.5125 1.71222 11.6965C3.79225 12.4648 5.95488 12.9774 8.15433 13.2237C8.55985 13.2686 8.96754 13.305 9.37307 13.3499C9.87314 13.4034 9.87096 13.4077 9.97602 13.9061C10.0463 14.3106 10.2283 14.6863 10.5007 14.9893C10.7731 15.2924 11.1246 15.5103 11.5141 15.6173C11.8959 15.7488 12.3062 15.7685 12.6984 15.6744C13.0906 15.5802 13.4491 15.3759 13.733 15.0847C14.0816 14.7387 14.3139 14.2896 14.3969 13.8013C14.5019 13.2793 14.4978 13.3007 15.0126 13.228C16.2439 13.0568 17.4793 12.8964 18.7022 12.6697C20.4525 12.3201 22.173 11.831 23.8479 11.2066C23.9698 11.1617 24.0938 11.1211 24.2156 11.0719C24.4552 10.9735 24.5645 11.0719 24.5645 11.3179C24.5645 11.8291 24.5645 12.3424 24.5645 12.8536C24.5645 14.0836 24.5645 15.3157 24.5645 16.5477C24.5645 16.6697 24.5372 16.7916 24.5057 17.059C24.3334 16.798 24.2283 16.6568 24.14 16.5028C23.5202 15.4333 22.5936 14.8579 21.3854 14.8771C20.1773 14.8964 19.2317 15.5189 18.6539 16.6312C18.4438 17.0305 18.2435 17.4362 18.053 17.8483C18.019 17.9363 17.9617 18.0131 17.8875 18.0701C17.8134 18.1271 17.7252 18.1621 17.6328 18.1713C17.2819 18.2205 16.9373 18.3082 16.5822 18.3467C14.7142 18.5606 13.4745 20.212 13.8107 22.2719C13.8317 22.366 13.8485 22.4729 13.8737 22.6291Z" fill="#005A3E"/>
<path d="M5.05708 3.86333C5.68743 3.86333 6.31778 3.86333 6.94813 3.86333C7.21498 3.86333 7.30947 3.76067 7.30947 3.49757C7.30947 3.02484 7.30947 2.54786 7.35359 2.07941C7.40602 1.52702 7.65455 1.01299 8.05258 0.633784C8.4506 0.254573 8.9708 0.0361273 9.5157 0.0194373C11.3745 -0.00908325 13.2341 -0.00908325 15.0944 0.0194373C16.2269 0.0344105 17.1808 1.05481 17.227 2.23556C17.2459 2.68903 17.2459 3.14457 17.227 3.59804C17.2165 3.89965 17.3321 3.98527 17.6158 3.98313C18.7693 3.9703 19.927 4.00018 21.0743 3.97237C21.8147 3.96563 22.5357 4.21322 23.121 4.67508C23.7062 5.13695 24.1215 5.78622 24.2996 6.51791C24.4299 7.08048 24.3983 7.68148 24.4382 8.2633C24.4592 8.59485 24.2029 8.66543 23.976 8.7403C22.3875 9.26436 20.8074 9.80982 19.2043 10.2911C17.7584 10.7156 16.2721 10.9816 14.7708 11.0847C14.3505 11.1146 14.3505 11.1082 14.2916 10.6569C14.2356 10.1357 14.0103 9.64865 13.6513 9.27276C13.2924 8.89687 12.8204 8.65378 12.3103 8.58206C11.8165 8.52452 11.3179 8.6355 10.8927 8.89759C10.4676 9.15968 10.1399 9.55806 9.96117 10.0302C9.88274 10.243 9.8312 10.4651 9.80779 10.6911C9.78047 10.9328 9.67537 11.0119 9.44214 10.9777C8.50502 10.8451 7.55111 10.7639 6.6308 10.5842C4.51823 10.149 2.4537 9.49972 0.46806 8.64619C0.12557 8.50502 -0.0425195 8.33174 -0.000496136 7.93816C0.0415272 7.54458 -0.0172562 7.13601 0.0499811 6.74884C0.190915 5.95002 0.599697 5.22574 1.20665 4.69952C1.8136 4.1733 2.58109 3.87779 3.3782 3.86333C3.93501 3.85264 4.49392 3.86333 5.05913 3.86333H5.05708ZM12.201 3.86333C12.9806 3.86333 13.7601 3.86333 14.5396 3.86333C14.7708 3.86333 14.8842 3.79055 14.8716 3.54028C14.859 3.29002 14.8716 3.08683 14.8716 2.86223C14.8716 2.43442 14.861 2.42371 14.4324 2.42157C13.1906 2.42157 11.9467 2.40446 10.7028 2.42157C9.45895 2.43868 9.7027 2.1649 9.67329 3.50822C9.67329 3.78416 9.76993 3.86761 10.0326 3.86333C10.7512 3.85478 11.474 3.86333 12.1989 3.86333H12.201Z" fill="#005A3E"/>
<path d="M17.5997 27.0694C17.7341 26.1689 17.8098 25.4737 17.9485 24.7892C18.0057 24.5901 18.0048 24.3782 17.9458 24.1796C17.8869 23.981 17.7725 23.8041 17.6165 23.6705C17.1248 23.2085 16.6731 22.7058 16.1898 22.2331C16.051 22.1198 15.9493 21.9663 15.8982 21.7928C15.8472 21.6194 15.8491 21.4342 15.904 21.2619C15.9605 21.0797 16.0691 20.9188 16.2157 20.7995C16.3624 20.6803 16.5406 20.6082 16.7277 20.5924C17.4232 20.4833 18.1165 20.3464 18.8183 20.2759C19.004 20.262 19.182 20.1942 19.331 20.0804C19.48 19.9667 19.5937 19.8118 19.6588 19.6341C19.9151 19.0908 20.1862 18.5518 20.4531 18.0107C20.5065 17.8905 20.5675 17.7739 20.6358 17.6619C21.056 17.0031 21.8272 16.9967 22.2222 17.6748C22.4975 18.1453 22.7117 18.6523 22.9555 19.14C23.548 20.325 23.3632 20.1539 24.6596 20.3571C25.1534 20.4341 25.6493 20.5069 26.143 20.5881C26.3301 20.6058 26.5077 20.68 26.6529 20.8012C26.7982 20.9224 26.9046 21.0852 26.9583 21.2684C27.0126 21.4411 27.0124 21.6269 26.9578 21.7995C26.9031 21.9721 26.7967 22.123 26.6536 22.231C26.2123 22.6374 25.8131 23.0865 25.3403 23.4587C25.1294 23.615 24.9682 23.8309 24.8767 24.0795C24.7852 24.3282 24.7674 24.5988 24.8256 24.8577C24.9265 25.5101 24.9958 26.1667 25.1071 26.8191C25.1514 27.0037 25.1406 27.1974 25.0762 27.3757C25.0119 27.554 24.8968 27.7088 24.7457 27.8202C24.4263 28.0684 24.0902 28.0342 23.7498 27.8545C23.1531 27.5465 22.5479 27.2598 21.9596 26.9347C21.7835 26.8291 21.5829 26.7735 21.3786 26.7735C21.1743 26.7735 20.9736 26.8291 20.7976 26.9347C20.2219 27.2448 19.6062 27.4822 19.0599 27.8352C18.3497 28.2972 17.4757 27.6405 17.5997 27.0694Z" fill="#005A3E"/>
</g>
<defs>
<clipPath id="clip0_885_1199">
<rect width="27" height="28" fill="white"/>
</clipPath>
</defs>
</svg>
