<svg width="18" height="27" viewBox="0 0 18 27" fill="none" xmlns="http://www.w3.org/2000/svg">
<path d="M18 8.58929V9.671C17.6349 10.9434 17.3757 12.2631 16.8868 13.48C15.4962 16.9387 13.5548 20.0771 11.5411 23.1613C10.7142 24.4269 9.86417 25.6736 8.9728 27C7.94082 25.4545 6.96559 24.0253 6.02262 22.5555C3.95867 19.3469 1.99921 16.0653 0.642165 12.4402C0.0939278 10.9745 -0.176966 9.43438 0.126177 7.89565C0.951757 3.66075 3.60909 0.323687 8.73543 0.0140473C12.8414 -0.227985 16.5397 2.68046 17.6659 6.97214C17.8026 7.49948 17.8891 8.04844 18 8.58929ZM12.2571 9.40057C12.2507 8.49543 11.9055 7.62911 11.2959 6.98805C10.6862 6.34699 9.8608 5.98245 8.9973 5.97291C7.21198 5.95128 5.66917 7.56168 5.68465 9.42898C5.70013 11.2963 7.19909 12.8634 8.95603 12.8742C9.83207 12.8685 10.6705 12.5003 11.2887 11.8497C11.907 11.1991 12.255 10.3189 12.2571 9.40057Z" fill="#005A3E"/>
</svg>
