<svg width="40" height="31" viewBox="0 0 40 31" fill="none" xmlns="http://www.w3.org/2000/svg">
<path d="M37.0825 0L40 3.66502C37.9527 4.78489 36.2124 5.95567 34.7793 7.17734C33.3461 8.39902 32.1689 9.8243 31.2476 11.4532C30.4287 12.8785 29.8401 14.3292 29.4818 15.8054C29.1747 17.2307 29.0211 18.936 29.0211 20.9212L25.4894 18.1724H37.3896C37.6967 22.8046 37.2361 26.8005 36.0077 30.1601C34.421 30.72 32.5528 31 30.4031 31C24.4658 31 21.4971 27.7931 21.4971 21.3793C21.4971 16.8489 22.9814 12.5476 25.9501 8.47537C28.9187 4.40312 32.6296 1.578 37.0825 0ZM15.5854 0L18.5029 3.66502C16.4555 4.78489 14.7153 5.95567 13.2821 7.17734C11.849 8.39902 10.6718 9.8243 9.75048 11.4532C8.93154 12.8785 8.34293 14.3292 7.98464 15.8054C7.67754 17.2307 7.52399 18.936 7.52399 20.9212L3.99232 18.1724H15.8925C16.1996 22.8046 15.739 26.8005 14.5106 30.1601C12.9239 30.72 11.0557 31 8.90595 31C2.96865 31 0 27.7931 0 21.3793C0 16.8489 1.48432 12.5476 4.45298 8.47537C7.42163 4.40312 11.1324 1.578 15.5854 0Z" fill="#9CDD3A"/>
</svg>
